<?xml version="1.0" encoding="UTF-8"?>
<svg xmlns="http://www.w3.org/2000/svg" xmlns:xlink="http://www.w3.org/1999/xlink" width="288px" height="252px" viewBox="0 0 288 252" version="1.1" id="Fig:dens">
  <metadata xmlns:gridsvg="http://www.stat.auckland.ac.nz/~paul/R/gridSVG/">
    <gridsvg:generator name="gridSVG" version="1.7-5" time="2024-11-11 08:37:13.515883"/>
    <gridsvg:argument name="name" value="arrayQualityMetrics report for cel_files/dens.svg"/>
    <gridsvg:argument name="exportCoords" value="none"/>
    <gridsvg:argument name="exportMappings" value="none"/>
    <gridsvg:argument name="exportJS" value="none"/>
    <gridsvg:argument name="res" value="72"/>
    <gridsvg:argument name="prefix" value="Fig:dens"/>
    <gridsvg:argument name="addClasses" value="FALSE"/>
    <gridsvg:argument name="indent" value="TRUE"/>
    <gridsvg:argument name="htmlWrapper" value="FALSE"/>
    <gridsvg:argument name="usePaths" value="none"/>
    <gridsvg:argument name="uniqueNames" value="TRUE"/>
    <gridsvg:separator name="id.sep" value="."/>
    <gridsvg:separator name="gPath.sep" value="::"/>
    <gridsvg:separator name="vpPath.sep" value="::"/>
  </metadata>
  <g transform="translate(0, 252) scale(1, -1)">
    <g id="Fig:densgridSVG" fill="none" stroke="rgb(0,0,0)" stroke-dasharray="none" stroke-width="0.75" font-size="12" font-family="Helvetica, Arial, FreeSans, Liberation Sans, Nimbus Sans L, sans-serif" opacity="1" stroke-linecap="round" stroke-linejoin="round" stroke-miterlimit="10" stroke-opacity="1" fill-opacity="0" font-weight="normal" font-style="normal">
      <g id="Fig:densplot_01.background.1">
        <rect id="Fig:densplot_01.background.1.1" x="0" y="0" width="288" height="252" transform="" fill="none" stroke="none" stroke-opacity="0" fill-opacity="0"/>
      </g>
      <g id="Fig:densplot_01.toplevel.vp.1" font-size="12">
        <g id="Fig:densplot_01.ylab.vp.1">
          <g id="Fig:densplot_01.ylab.1">
            <g id="Fig:densplot_01.ylab.1.1" transform="translate(16.31, 141.09)" stroke-width="0.1">
              <g id="Fig:densplot_01.ylab.1.1.scale" transform="scale(1, -1)">
                <text x="0" y="0" id="Fig:densplot_01.ylab.1.1.text" transform="rotate(-90)" text-anchor="middle" opacity="1" stroke="rgb(0,0,0)" fill="rgb(0,0,0)" stroke-opacity="1" fill-opacity="1" font-size="12" font-weight="normal" font-style="normal">
                  <tspan id="Fig:densplot_01.ylab.1.1.tspan.1" dy="4.31" x="0">Density</tspan>
                </text>
              </g>
            </g>
          </g>
        </g>
        <g id="Fig:densplot_01.figure.vp.1"/>
        <defs>
          <clipPath id="Fig:densplot_01.panel.1.1.vp.1.clipPath">
            <rect x="50.8" y="48.19" width="225.2" height="185.81" fill="none" stroke="none"/>
          </clipPath>
        </defs>
        <g id="Fig:densplot_01.panel.1.1.vp.1" clip-path="url(#Fig:densplot_01.panel.1.1.vp.1.clipPath)"/>
        <g id="Fig:densplot_01.strip.1.1.off.vp.1"/>
        <g id="Fig:densplot_01.strip.left.1.1.off.vp.1">
          <g id="Fig:densplot_01.ticks.left.panel.1.1.1">
            <polyline id="Fig:densplot_01.ticks.left.panel.1.1.1.1" points="50.8,59.6 45.13,59.6" stroke="rgb(0,0,0)" opacity="1" stroke-dasharray="none" stroke-width="0.75" stroke-opacity="1" fill="none"/>
            <polyline id="Fig:densplot_01.ticks.left.panel.1.1.1.2" points="50.8,114.3 45.13,114.3" stroke="rgb(0,0,0)" opacity="1" stroke-dasharray="none" stroke-width="0.75" stroke-opacity="1" fill="none"/>
            <polyline id="Fig:densplot_01.ticks.left.panel.1.1.1.3" points="50.8,169 45.13,169" stroke="rgb(0,0,0)" opacity="1" stroke-dasharray="none" stroke-width="0.75" stroke-opacity="1" fill="none"/>
            <polyline id="Fig:densplot_01.ticks.left.panel.1.1.1.4" points="50.8,223.7 45.13,223.7" stroke="rgb(0,0,0)" opacity="1" stroke-dasharray="none" stroke-width="0.75" stroke-opacity="1" fill="none"/>
          </g>
          <g id="Fig:densplot_01.ticklabels.left.panel.1.1.1">
            <g id="Fig:densplot_01.ticklabels.left.panel.1.1.1.1" transform="translate(39.47, 59.6)" stroke-width="0.1">
              <g id="Fig:densplot_01.ticklabels.left.panel.1.1.1.1.scale" transform="scale(1, -1)">
                <text x="0" y="0" id="Fig:densplot_01.ticklabels.left.panel.1.1.1.1.text" transform="rotate(-90)" text-anchor="middle" stroke="rgb(0,0,0)" opacity="1" fill="rgb(0,0,0)" stroke-opacity="1" fill-opacity="1" font-size="9.6" font-weight="normal" font-style="normal">
                  <tspan id="Fig:densplot_01.ticklabels.left.panel.1.1.1.1.tspan.1" dy="0" x="0">0.000</tspan>
                </text>
              </g>
            </g>
            <g id="Fig:densplot_01.ticklabels.left.panel.1.1.1.2" transform="translate(39.47, 114.3)" stroke-width="0.1">
              <g id="Fig:densplot_01.ticklabels.left.panel.1.1.1.2.scale" transform="scale(1, -1)">
                <text x="0" y="0" id="Fig:densplot_01.ticklabels.left.panel.1.1.1.2.text" transform="rotate(-90)" text-anchor="middle" stroke="rgb(0,0,0)" opacity="1" fill="rgb(0,0,0)" stroke-opacity="1" fill-opacity="1" font-size="9.6" font-weight="normal" font-style="normal">
                  <tspan id="Fig:densplot_01.ticklabels.left.panel.1.1.1.2.tspan.1" dy="0" x="0">0.005</tspan>
                </text>
              </g>
            </g>
            <g id="Fig:densplot_01.ticklabels.left.panel.1.1.1.3" transform="translate(39.47, 169)" stroke-width="0.1">
              <g id="Fig:densplot_01.ticklabels.left.panel.1.1.1.3.scale" transform="scale(1, -1)">
                <text x="0" y="0" id="Fig:densplot_01.ticklabels.left.panel.1.1.1.3.text" transform="rotate(-90)" text-anchor="middle" stroke="rgb(0,0,0)" opacity="1" fill="rgb(0,0,0)" stroke-opacity="1" fill-opacity="1" font-size="9.6" font-weight="normal" font-style="normal">
                  <tspan id="Fig:densplot_01.ticklabels.left.panel.1.1.1.3.tspan.1" dy="0" x="0">0.010</tspan>
                </text>
              </g>
            </g>
            <g id="Fig:densplot_01.ticklabels.left.panel.1.1.1.4" transform="translate(39.47, 223.7)" stroke-width="0.1">
              <g id="Fig:densplot_01.ticklabels.left.panel.1.1.1.4.scale" transform="scale(1, -1)">
                <text x="0" y="0" id="Fig:densplot_01.ticklabels.left.panel.1.1.1.4.text" transform="rotate(-90)" text-anchor="middle" stroke="rgb(0,0,0)" opacity="1" fill="rgb(0,0,0)" stroke-opacity="1" fill-opacity="1" font-size="9.6" font-weight="normal" font-style="normal">
                  <tspan id="Fig:densplot_01.ticklabels.left.panel.1.1.1.4.tspan.1" dy="0" x="0">0.015</tspan>
                </text>
              </g>
            </g>
          </g>
        </g>
        <g id="Fig:densplot_01.panel.1.1.off.vp.1">
          <g id="Fig:densplot_01.ticks.bottom.panel.1.1.1">
            <polyline id="Fig:densplot_01.ticks.bottom.panel.1.1.1.1" points="64.36,48.19 64.36,42.52" stroke="rgb(0,0,0)" opacity="1" stroke-dasharray="none" stroke-width="0.75" stroke-opacity="1" fill="none"/>
            <polyline id="Fig:densplot_01.ticks.bottom.panel.1.1.1.2" points="130.71,48.19 130.71,42.52" stroke="rgb(0,0,0)" opacity="1" stroke-dasharray="none" stroke-width="0.75" stroke-opacity="1" fill="none"/>
            <polyline id="Fig:densplot_01.ticks.bottom.panel.1.1.1.3" points="197.06,48.19 197.06,42.52" stroke="rgb(0,0,0)" opacity="1" stroke-dasharray="none" stroke-width="0.75" stroke-opacity="1" fill="none"/>
            <polyline id="Fig:densplot_01.ticks.bottom.panel.1.1.1.4" points="263.41,48.19 263.41,42.52" stroke="rgb(0,0,0)" opacity="1" stroke-dasharray="none" stroke-width="0.75" stroke-opacity="1" fill="none"/>
          </g>
          <g id="Fig:densplot_01.ticklabels.bottom.panel.1.1.1">
            <g id="Fig:densplot_01.ticklabels.bottom.panel.1.1.1.1" transform="translate(64.36, 36.85)" stroke-width="0.1">
              <g id="Fig:densplot_01.ticklabels.bottom.panel.1.1.1.1.scale" transform="scale(1, -1)">
                <text x="0" y="0" id="Fig:densplot_01.ticklabels.bottom.panel.1.1.1.1.text" text-anchor="middle" stroke="rgb(0,0,0)" opacity="1" fill="rgb(0,0,0)" stroke-opacity="1" fill-opacity="1" font-size="9.6" font-weight="normal" font-style="normal">
                  <tspan id="Fig:densplot_01.ticklabels.bottom.panel.1.1.1.1.tspan.1" dy="7.18" x="0">0</tspan>
                </text>
              </g>
            </g>
            <g id="Fig:densplot_01.ticklabels.bottom.panel.1.1.1.2" transform="translate(130.71, 36.85)" stroke-width="0.1">
              <g id="Fig:densplot_01.ticklabels.bottom.panel.1.1.1.2.scale" transform="scale(1, -1)">
                <text x="0" y="0" id="Fig:densplot_01.ticklabels.bottom.panel.1.1.1.2.text" text-anchor="middle" stroke="rgb(0,0,0)" opacity="1" fill="rgb(0,0,0)" stroke-opacity="1" fill-opacity="1" font-size="9.6" font-weight="normal" font-style="normal">
                  <tspan id="Fig:densplot_01.ticklabels.bottom.panel.1.1.1.2.tspan.1" dy="7.18" x="0">500</tspan>
                </text>
              </g>
            </g>
            <g id="Fig:densplot_01.ticklabels.bottom.panel.1.1.1.3" transform="translate(197.06, 36.85)" stroke-width="0.1">
              <g id="Fig:densplot_01.ticklabels.bottom.panel.1.1.1.3.scale" transform="scale(1, -1)">
                <text x="0" y="0" id="Fig:densplot_01.ticklabels.bottom.panel.1.1.1.3.text" text-anchor="middle" stroke="rgb(0,0,0)" opacity="1" fill="rgb(0,0,0)" stroke-opacity="1" fill-opacity="1" font-size="9.6" font-weight="normal" font-style="normal">
                  <tspan id="Fig:densplot_01.ticklabels.bottom.panel.1.1.1.3.tspan.1" dy="7.18" x="0">1000</tspan>
                </text>
              </g>
            </g>
            <g id="Fig:densplot_01.ticklabels.bottom.panel.1.1.1.4" transform="translate(263.41, 36.85)" stroke-width="0.1">
              <g id="Fig:densplot_01.ticklabels.bottom.panel.1.1.1.4.scale" transform="scale(1, -1)">
                <text x="0" y="0" id="Fig:densplot_01.ticklabels.bottom.panel.1.1.1.4.text" text-anchor="middle" stroke="rgb(0,0,0)" opacity="1" fill="rgb(0,0,0)" stroke-opacity="1" fill-opacity="1" font-size="9.6" font-weight="normal" font-style="normal">
                  <tspan id="Fig:densplot_01.ticklabels.bottom.panel.1.1.1.4.tspan.1" dy="7.18" x="0">1500</tspan>
                </text>
              </g>
            </g>
          </g>
        </g>
        <defs>
          <clipPath id="Fig:densplot_01.panel.1.1.vp.2.clipPath">
            <rect x="50.8" y="48.19" width="225.2" height="185.81" fill="none" stroke="none"/>
          </clipPath>
        </defs>
        <g id="Fig:densplot_01.panel.1.1.vp.2" clip-path="url(#Fig:densplot_01.panel.1.1.vp.2.clipPath)">
          <g id="Fig:densplot_01.xyplot.lines.group.1.panel.1.1.1">
            <polyline id="Fig:densplot_01.xyplot.lines.group.1.panel.1.1.1.1" points="64.94,59.67 65.33,59.94 65.71,60.86 66.1,63.51 66.49,69.87 66.87,82.58 67.26,103.73 67.64,132.87 68.03,165.72 68.42,195.18 68.8,214.51 69.19,220.7 69.57,215.45 69.96,203.37 70.35,189.06 70.73,175.45 71.12,163.66 71.5,153.74 71.89,145.45 72.28,138.48 72.66,132.57 73.05,127.46 73.43,122.92 73.82,118.8 74.21,115.05 74.59,111.67 74.98,108.68 75.36,106.05 75.75,103.72 76.14,101.62 76.52,99.67 76.91,97.85 77.29,96.16 77.68,94.61 78.07,93.21 78.45,91.95 78.84,90.79 79.22,89.71 79.61,88.66 80,87.62 80.38,86.58 80.77,85.54 81.15,84.52 81.54,83.55 81.92,82.64 82.31,81.81 82.7,81.06 83.08,80.4 83.47,79.8 83.85,79.23 84.24,78.68 84.63,78.11 85.01,77.51 85.4,76.93 85.78,76.39 86.17,75.92 86.56,75.52 86.94,75.14 87.33,74.76 87.71,74.35 88.1,73.91 88.49,73.48 88.87,73.07 89.26,72.68 89.64,72.32 90.03,71.97 90.42,71.64 90.8,71.32 91.19,71.03 91.57,70.74 91.96,70.46 92.35,70.19 92.73,69.94 93.12,69.74 93.5,69.55 93.89,69.37 94.28,69.17 94.66,68.94 95.05,68.7 95.43,68.47 95.82,68.25 96.21,68.06 96.59,67.88 96.98,67.72 97.36,67.57 97.75,67.41 98.14,67.25 98.52,67.09 98.91,66.93 99.29,66.78 99.68,66.64 100.07,66.49 100.45,66.34 100.84,66.2 101.22,66.06 101.61,65.94 102,65.82 102.38,65.71 102.77,65.62 103.15,65.53 103.54,65.45 103.93,65.37 104.31,65.27 104.7,65.15 105.08,65.02 105.47,64.89 105.85,64.78 106.24,64.69 106.63,64.61 107.01,64.55 107.4,64.49 107.78,64.45 108.17,64.42 108.56,64.38 108.94,64.34 109.33,64.29 109.71,64.21 110.1,64.11 110.49,64 110.87,63.89 111.26,63.79 111.64,63.71 112.03,63.66 112.42,63.62 112.8,63.59 113.19,63.55 113.57,63.51 113.96,63.46 114.35,63.41 114.73,63.36 115.12,63.29 115.5,63.21 115.89,63.11 116.28,63.01 116.66,62.92 117.05,62.83 117.43,62.76 117.82,62.7 118.21,62.66 118.59,62.63 118.98,62.62 119.36,62.6 119.75,62.58 120.14,62.55 120.52,62.52 120.91,62.5 121.29,62.49 121.68,62.48 122.07,62.47 122.45,62.43 122.84,62.38 123.22,62.33 123.61,62.27 124,62.23 124.38,62.2 124.77,62.18 125.15,62.16 125.54,62.14 125.93,62.12 126.31,62.09 126.7,62.04 127.08,61.99 127.47,61.94 127.86,61.89 128.24,61.86 128.63,61.82 129.01,61.8 129.4,61.77 129.79,61.75 130.17,61.72 130.56,61.69 130.94,61.66 131.33,61.62 131.71,61.59 132.1,61.56 132.49,61.53 132.87,61.5 133.26,61.48 133.64,61.47 134.03,61.47 134.42,61.48 134.8,61.5 135.19,61.53 135.57,61.56 135.96,61.56 136.35,61.55 136.73,61.51 137.12,61.46 137.5,61.41 137.89,61.36 138.28,61.31 138.66,61.28 139.05,61.27 139.43,61.27 139.82,61.27 140.21,61.26 140.59,61.25 140.98,61.24 141.36,61.22 141.75,61.2 142.14,61.19 142.52,61.16 142.91,61.13 143.29,61.1 143.68,61.06 144.07,61.03 144.45,61.01 144.84,61.02 145.22,61.02 145.61,61.03 146,61.03 146.38,61.01 146.77,60.99 147.15,60.96 147.54,60.93 147.93,60.9 148.31,60.87 148.7,60.86 149.08,60.85 149.47,60.85 149.86,60.85 150.24,60.86 150.63,60.86 151.01,60.85 151.4,60.84 151.79,60.83 152.17,60.82 152.56,60.81 152.94,60.8 153.33,60.79 153.72,60.79 154.1,60.79 154.49,60.78 154.87,60.77 155.26,60.76 155.64,60.74 156.03,60.72 156.42,60.7 156.8,60.69 157.19,60.68 157.57,60.67 157.96,60.67 158.35,60.67 158.73,60.67 159.12,60.67 159.5,60.65 159.89,60.62 160.28,60.59 160.66,60.56 161.05,60.54 161.43,60.52 161.82,60.52 162.21,60.51 162.59,60.5 162.98,60.5 163.36,60.49 163.75,60.49 164.14,60.49 164.52,60.49 164.91,60.49 165.29,60.48 165.68,60.48 166.07,60.47 166.45,60.46 166.84,60.46 167.22,60.46 167.61,60.46 168,60.45 168.38,60.45 168.77,60.44 169.15,60.43 169.54,60.42 169.93,60.41 170.31,60.4 170.7,60.39 171.08,60.39 171.47,60.39 171.86,60.39 172.24,60.39 172.63,60.39 173.01,60.39 173.4,60.39 173.79,60.39 174.17,60.39 174.56,60.38 174.94,60.37 175.33,60.36 175.72,60.35 176.1,60.34 176.49,60.32 176.87,60.32 177.26,60.32 177.65,60.32 178.03,60.34 178.42,60.35 178.8,60.37 179.19,60.38 179.57,60.37 179.96,60.35 180.35,60.33 180.73,60.31 181.12,60.29 181.5,60.28 181.89,60.28 182.28,60.27 182.66,60.27 183.05,60.26 183.43,60.26 183.82,60.26 184.21,60.26 184.59,60.26 184.98,60.26 185.36,60.25 185.75,60.24 186.14,60.23 186.52,60.23 186.91,60.23 187.29,60.23 187.68,60.22 188.07,60.22 188.45,60.21 188.84,60.2 189.22,60.19 189.61,60.17 190,60.15 190.38,60.13 190.77,60.12 191.15,60.11 191.54,60.11 191.93,60.12 192.31,60.14 192.7,60.15 193.08,60.16 193.47,60.16 193.86,60.15 194.24,60.14 194.63,60.11 195.01,60.09 195.4,60.08 195.79,60.07 196.17,60.07 196.56,60.09 196.94,60.1 197.33,60.12 197.72,60.13 198.1,60.13 198.49,60.12 198.87,60.11 199.26,60.1 199.65,60.09 200.03,60.08 200.42,60.07 200.8,60.06 201.19,60.06 201.58,60.06 201.96,60.06 202.35,60.07 202.73,60.07 203.12,60.07 203.5,60.07 203.89,60.05 204.28,60.04 204.66,60.03 205.05,60.03 205.43,60.03 205.82,60.03 206.21,60.03 206.59,60.02 206.98,60.03 207.36,60.03 207.75,60.04 208.14,60.05 208.52,60.05 208.91,60.05 209.29,60.04 209.68,60.03 210.07,60.03 210.45,60.02 210.84,60.01 211.22,60 211.61,60 212,59.99 212.38,59.99 212.77,60 213.15,60.01 213.54,60.02 213.93,60.03 214.31,60.04 214.7,60.04 215.08,60.03 215.47,60.02 215.86,60 216.24,59.99 216.63,59.98 217.01,59.98 217.4,59.98 217.79,59.98 218.17,59.98 218.56,59.97 218.94,59.97 219.33,59.96 219.72,59.96 220.1,59.95 220.49,59.95 220.87,59.94 221.26,59.94 221.65,59.94 222.03,59.95 222.42,59.95 222.8,59.96 223.19,59.96 223.58,59.97 223.96,59.98 224.35,59.98 224.73,59.99 225.12,59.99 225.51,59.98 225.89,59.97 226.28,59.97 226.66,59.96 227.05,59.96 227.44,59.96 227.82,59.96 228.21,59.96 228.59,59.95 228.98,59.94 229.36,59.93 229.75,59.91 230.14,59.89 230.52,59.88 230.91,59.89 231.29,59.9 231.68,59.92 232.07,59.93 232.45,59.93 232.84,59.93 233.22,59.92 233.61,59.92 234,59.92 234.38,59.92 234.77,59.92 235.15,59.92 235.54,59.92 235.93,59.92 236.31,59.92 236.7,59.92 237.08,59.92 237.47,59.91 237.86,59.9 238.24,59.89 238.63,59.88 239.01,59.87 239.4,59.86 239.79,59.86 240.17,59.85 240.56,59.85 240.94,59.85 241.33,59.85 241.72,59.85 242.1,59.85 242.49,59.86 242.87,59.86 243.26,59.86 243.65,59.87 244.03,59.87 244.42,59.88 244.8,59.89 245.19,59.9 245.58,59.9 245.96,59.9 246.35,59.9 246.73,59.91 247.12,59.91 247.51,59.91 247.89,59.9 248.28,59.89 248.66,59.88 249.05,59.87 249.44,59.86 249.82,59.86 250.21,59.85 250.59,59.84 250.98,59.84 251.37,59.83 251.75,59.82 252.14,59.82 252.52,59.82 252.91,59.83 253.29,59.83 253.68,59.83 254.07,59.82 254.45,59.82 254.84,59.81 255.22,59.81 255.61,59.82 256,59.82 256.38,59.83 256.77,59.84 257.15,59.85 257.54,59.85 257.93,59.84 258.31,59.83 258.7,59.81 259.08,59.78 259.47,59.74 259.86,59.7 260.24,59.66 260.63,59.63 261.01,59.61 261.4,59.6 261.79,59.6 262.17,59.6" stroke-dasharray="none" stroke="rgb(31,120,180)" stroke-width="0.75" opacity="1" stroke-opacity="1" fill="none"/>
          </g>
          <g id="Fig:densplot_01.xyplot.lines.group.2.panel.1.1.1">
            <polyline id="Fig:densplot_01.xyplot.lines.group.2.panel.1.1.1.1" points="64.63,59.63 65.02,59.76 65.4,60.26 65.79,61.86 66.18,66.13 66.56,75.66 66.95,93.28 67.34,120.24 67.72,153.88 68.11,187.24 68.5,211.91 68.88,222.59 69.27,219.76 69.65,208.19 70.04,193.67 70.43,179.72 70.81,167.56 71.2,157.29 71.59,148.64 71.97,141.38 72.36,135.25 72.75,130.02 73.13,125.43 73.52,121.31 73.91,117.56 74.29,114.13 74.68,111.03 75.06,108.24 75.45,105.76 75.84,103.52 76.22,101.49 76.61,99.61 77,97.85 77.38,96.18 77.77,94.6 78.16,93.14 78.54,91.82 78.93,90.62 79.32,89.5 79.7,88.42 80.09,87.38 80.47,86.37 80.86,85.4 81.25,84.46 81.63,83.54 82.02,82.65 82.41,81.79 82.79,80.99 83.18,80.23 83.57,79.5 83.95,78.8 84.34,78.14 84.72,77.55 85.11,77.03 85.5,76.57 85.88,76.13 86.27,75.68 86.66,75.21 87.04,74.74 87.43,74.27 87.82,73.83 88.2,73.42 88.59,73.04 88.98,72.68 89.36,72.33 89.75,71.99 90.13,71.67 90.52,71.38 90.91,71.12 91.29,70.9 91.68,70.69 92.07,70.47 92.45,70.24 92.84,70.01 93.23,69.77 93.61,69.54 94,69.3 94.38,69.05 94.77,68.81 95.16,68.58 95.54,68.37 95.93,68.18 96.32,68.01 96.7,67.85 97.09,67.7 97.48,67.56 97.86,67.43 98.25,67.3 98.64,67.16 99.02,67.01 99.41,66.83 99.79,66.63 100.18,66.41 100.57,66.18 100.95,65.97 101.34,65.77 101.73,65.61 102.11,65.49 102.5,65.42 102.89,65.36 103.27,65.29 103.66,65.21 104.05,65.12 104.43,65.04 104.82,64.97 105.2,64.91 105.59,64.83 105.98,64.74 106.36,64.62 106.75,64.51 107.14,64.39 107.52,64.28 107.91,64.15 108.3,64.03 108.68,63.91 109.07,63.81 109.45,63.74 109.84,63.7 110.23,63.68 110.61,63.66 111,63.62 111.39,63.57 111.77,63.5 112.16,63.45 112.55,63.41 112.93,63.39 113.32,63.38 113.71,63.35 114.09,63.31 114.48,63.24 114.86,63.15 115.25,63.06 115.64,62.97 116.02,62.89 116.41,62.84 116.8,62.8 117.18,62.76 117.57,62.71 117.96,62.64 118.34,62.58 118.73,62.52 119.11,62.49 119.5,62.46 119.89,62.43 120.27,62.41 120.66,62.39 121.05,62.38 121.43,62.37 121.82,62.37 122.21,62.35 122.59,62.32 122.98,62.27 123.37,62.21 123.75,62.14 124.14,62.09 124.52,62.04 124.91,62.01 125.3,62 125.68,62 126.07,62 126.46,61.99 126.84,61.98 127.23,61.94 127.62,61.9 128,61.85 128.39,61.79 128.77,61.72 129.16,61.66 129.55,61.61 129.93,61.58 130.32,61.58 130.71,61.59 131.09,61.59 131.48,61.59 131.87,61.57 132.25,61.54 132.64,61.51 133.03,61.49 133.41,61.46 133.8,61.43 134.18,61.41 134.57,61.39 134.96,61.38 135.34,61.39 135.73,61.4 136.12,61.4 136.5,61.4 136.89,61.38 137.28,61.36 137.66,61.33 138.05,61.29 138.44,61.26 138.82,61.23 139.21,61.21 139.59,61.19 139.98,61.17 140.37,61.15 140.75,61.12 141.14,61.09 141.53,61.08 141.91,61.07 142.3,61.07 142.69,61.06 143.07,61.05 143.46,61.03 143.84,61.02 144.23,61 144.62,60.98 145,60.96 145.39,60.94 145.78,60.91 146.16,60.89 146.55,60.88 146.94,60.87 147.32,60.87 147.71,60.85 148.1,60.83 148.48,60.8 148.87,60.77 149.25,60.73 149.64,60.7 150.03,60.67 150.41,60.65 150.8,60.65 151.19,60.67 151.57,60.7 151.96,60.73 152.35,60.73 152.73,60.71 153.12,60.67 153.5,60.63 153.89,60.6 154.28,60.58 154.66,60.57 155.05,60.57 155.44,60.57 155.82,60.58 156.21,60.59 156.6,60.6 156.98,60.6 157.37,60.6 157.76,60.61 158.14,60.62 158.53,60.64 158.91,60.64 159.3,60.64 159.69,60.63 160.07,60.6 160.46,60.58 160.85,60.56 161.23,60.54 161.62,60.54 162.01,60.54 162.39,60.53 162.78,60.52 163.16,60.5 163.55,60.47 163.94,60.45 164.32,60.43 164.71,60.42 165.1,60.41 165.48,60.42 165.87,60.42 166.26,60.43 166.64,60.43 167.03,60.43 167.42,60.42 167.8,60.42 168.19,60.41 168.57,60.4 168.96,60.4 169.35,60.4 169.73,60.4 170.12,60.4 170.51,60.38 170.89,60.36 171.28,60.34 171.67,60.33 172.05,60.32 172.44,60.31 172.83,60.31 173.21,60.31 173.6,60.32 173.98,60.33 174.37,60.35 174.76,60.35 175.14,60.35 175.53,60.33 175.92,60.31 176.3,60.29 176.69,60.27 177.08,60.26 177.46,60.25 177.85,60.24 178.23,60.23 178.62,60.23 179.01,60.23 179.39,60.23 179.78,60.23 180.17,60.23 180.55,60.22 180.94,60.2 181.33,60.18 181.71,60.16 182.1,60.14 182.49,60.14 182.87,60.14 183.26,60.14 183.64,60.13 184.03,60.12 184.42,60.12 184.8,60.13 185.19,60.15 185.58,60.17 185.96,60.2 186.35,60.21 186.74,60.21 187.12,60.21 187.51,60.19 187.89,60.17 188.28,60.16 188.67,60.14 189.05,60.14 189.44,60.13 189.83,60.12 190.21,60.12 190.6,60.11 190.99,60.11 191.37,60.11 191.76,60.1 192.15,60.1 192.53,60.1 192.92,60.1 193.3,60.11 193.69,60.11 194.08,60.1 194.46,60.1 194.85,60.1 195.24,60.09 195.62,60.09 196.01,60.08 196.4,60.07 196.78,60.06 197.17,60.06 197.56,60.05 197.94,60.05 198.33,60.05 198.71,60.06 199.1,60.05 199.49,60.05 199.87,60.03 200.26,60.02 200.65,60 201.03,60 201.42,60 201.81,60.02 202.19,60.04 202.58,60.05 202.96,60.07 203.35,60.08 203.74,60.07 204.12,60.06 204.51,60.05 204.9,60.03 205.28,60.01 205.67,60 206.06,60 206.44,60.01 206.83,60.02 207.22,60.03 207.6,60.03 207.99,60.04 208.37,60.04 208.76,60.04 209.15,60.04 209.53,60.03 209.92,60.02 210.31,60.01 210.69,60 211.08,60 211.47,60 211.85,60 212.24,59.99 212.62,59.99 213.01,59.99 213.4,59.98 213.78,59.98 214.17,59.99 214.56,59.99 214.94,60 215.33,60.01 215.72,60.01 216.1,60.01 216.49,60 216.88,59.98 217.26,59.97 217.65,59.97 218.03,59.97 218.42,59.97 218.81,59.97 219.19,59.97 219.58,59.97 219.97,59.97 220.35,59.97 220.74,59.97 221.13,59.98 221.51,59.98 221.9,59.97 222.28,59.96 222.67,59.95 223.06,59.94 223.44,59.94 223.83,59.94 224.22,59.94 224.6,59.93 224.99,59.93 225.38,59.92 225.76,59.91 226.15,59.9 226.54,59.9 226.92,59.9 227.31,59.89 227.69,59.89 228.08,59.88 228.47,59.87 228.85,59.86 229.24,59.85 229.63,59.86 230.01,59.86 230.4,59.87 230.79,59.88 231.17,59.88 231.56,59.88 231.95,59.88 232.33,59.88 232.72,59.88 233.1,59.89 233.49,59.89 233.88,59.9 234.26,59.9 234.65,59.9 235.04,59.9 235.42,59.89 235.81,59.88 236.2,59.87 236.58,59.85 236.97,59.85 237.35,59.84 237.74,59.84 238.13,59.84 238.51,59.84 238.9,59.83 239.29,59.83 239.67,59.82 240.06,59.82 240.45,59.83 240.83,59.85 241.22,59.87 241.61,59.89 241.99,59.9 242.38,59.9 242.76,59.89 243.15,59.88 243.54,59.88 243.92,59.87 244.31,59.86 244.7,59.85 245.08,59.84 245.47,59.84 245.86,59.83 246.24,59.83 246.63,59.83 247.01,59.83 247.4,59.83 247.79,59.83 248.17,59.83 248.56,59.84 248.95,59.84 249.33,59.85 249.72,59.85 250.11,59.86 250.49,59.86 250.88,59.85 251.27,59.84 251.65,59.84 252.04,59.83 252.42,59.82 252.81,59.82 253.2,59.82 253.58,59.82 253.97,59.82 254.36,59.83 254.74,59.85 255.13,59.85 255.52,59.86 255.9,59.85 256.29,59.84 256.68,59.82 257.06,59.81 257.45,59.8 257.83,59.79 258.22,59.78 258.61,59.77 258.99,59.75 259.38,59.72 259.77,59.68 260.15,59.65 260.54,59.63 260.93,59.61 261.31,59.6 261.7,59.6 262.08,59.6" stroke-dasharray="none" stroke="rgb(31,120,180)" stroke-width="0.75" opacity="1" stroke-opacity="1" fill="none"/>
          </g>
        </g>
        <g id="Fig:densplot_01.panel.1.1.off.vp.2">
          <g id="Fig:densplot_01.border.panel.1.1.1">
            <rect id="Fig:densplot_01.border.panel.1.1.1.1" x="50.8" y="48.19" width="225.2" height="185.81" transform="" stroke="rgb(0,0,0)" stroke-dasharray="none" stroke-width="0.75" opacity="1" fill="none" stroke-opacity="1" fill-opacity="0"/>
          </g>
        </g>
        <g id="Fig:densplot_01..1"/>
      </g>
    </g>
  </g>
</svg>